<svg width="32" height="32" viewBox="0 0 32 32" fill="none" xmlns="http://www.w3.org/2000/svg">
<rect width="32" height="32" rx="16" fill="#181818" fill-opacity="0.5"/>
<rect x="0.5" y="0.5" width="31" height="31" rx="15.5" stroke="#EFE7D2" stroke-opacity="0.15"/>
<path d="M21.7625 16.2625L17.2625 20.7625C17.228 20.797 17.1871 20.8243 17.1421 20.843C17.097 20.8616 17.0488 20.8712 17 20.8712C16.9512 20.8712 16.903 20.8616 16.8579 20.843C16.8129 20.8243 16.772 20.797 16.7375 20.7625C16.703 20.728 16.6757 20.6871 16.657 20.6421C16.6384 20.597 16.6288 20.5488 16.6288 20.5C16.6288 20.4513 16.6384 20.403 16.657 20.358C16.6757 20.3129 16.703 20.272 16.7375 20.2375L20.5938 16.375H10.5C10.4005 16.375 10.3052 16.3355 10.2348 16.2652C10.1645 16.1949 10.125 16.0995 10.125 16C10.125 15.9006 10.1645 15.8052 10.2348 15.7349C10.3052 15.6645 10.4005 15.625 10.5 15.625H20.5938L16.7375 11.7625C16.6679 11.6929 16.6288 11.5985 16.6288 11.5C16.6288 11.4016 16.6679 11.3071 16.7375 11.2375C16.8071 11.1679 16.9015 11.1288 17 11.1288C17.0985 11.1288 17.1929 11.1679 17.2625 11.2375L21.7625 15.7375C21.798 15.7714 21.8264 15.8121 21.8457 15.8572C21.865 15.9023 21.875 15.9509 21.875 16C21.875 16.0491 21.865 16.0977 21.8457 16.1428C21.8264 16.1879 21.798 16.2287 21.7625 16.2625Z" fill="#EFE7D2"/>
</svg>
